<svg width="326" height="326" viewBox="0 0 326 326" fill="none" xmlns="http://www.w3.org/2000/svg">
<g clip-path="url(#clip0_12_84)">
<rect width="326" height="326" rx="38" fill="url(#paint0_linear_12_84)"/>
<path d="M110.979 69.1382C110.979 73.3382 102.879 74.5382 102.879 82.3382V243.438C102.879 251.238 110.979 252.438 110.979 256.638C110.979 258.138 109.779 259.638 108.579 259.638H77.0793C75.8793 259.638 74.6793 258.138 74.6793 256.638C74.6793 252.438 82.7793 251.238 82.7793 243.438V82.3382C82.7793 74.5382 74.6793 73.3382 74.6793 69.1382C74.6793 67.6382 75.8793 66.1382 77.0793 66.1382H108.579C109.779 66.1382 110.979 67.6382 110.979 69.1382ZM128.522 125.838C128.522 87.4382 145.022 67.6382 174.722 64.6382C178.622 63.4382 184.022 63.1382 189.722 63.1382C214.622 63.1382 250.322 72.7382 250.322 85.3382C250.322 91.3382 248.222 97.6382 244.622 97.6382C235.322 97.6382 215.822 73.9382 178.322 73.9382C151.922 73.9382 137.822 87.1382 138.422 118.638C140.522 197.238 170.222 246.738 205.322 246.738C225.122 246.738 237.422 234.138 248.522 214.038C255.422 201.738 255.122 190.938 257.522 190.938C259.022 190.938 259.922 192.138 259.922 194.838C259.922 209.838 242.222 262.338 198.722 262.338C156.122 262.338 128.522 212.838 128.522 125.838Z" fill="#EAFCFF"/>
</g>
<defs>
<linearGradient id="paint0_linear_12_84" x1="163" y1="0" x2="163" y2="326" gradientUnits="userSpaceOnUse">
<stop stop-color="#164242"/>
<stop offset="1" stop-color="#010B0C"/>
</linearGradient>
<clipPath id="clip0_12_84">
<rect width="326" height="326" fill="white"/>
</clipPath>
</defs>
</svg>
